# Blender 3.4.1
# www.blender.org
mtllib creature2.mtl
o Cube
v -0.200000 0.200000 1.000000
v -0.200000 -0.200000 1.000000
v -0.200000 0.200000 -1.000000
v -0.200000 -0.200000 -1.000000
v 0.200000 0.200000 1.000000
v 0.200000 -0.200000 1.000000
v 0.200000 0.200000 -1.000000
v 0.200000 -0.200000 -1.000000
v -0.127486 2.497942 -0.127486
v 0.127486 2.497942 -0.127486
v -0.127486 2.497942 0.127486
v 0.127486 2.497942 0.127486
v -1.000000 -1.000000 1.000000
v 1.000000 -1.000000 1.000000
v -0.497942 1.502058 0.497942
v 1.000000 -1.000000 -1.000000
v 0.497942 1.502058 -0.497942
v -0.497942 1.502058 -0.497942
v -1.000000 -1.000000 -1.000000
v 0.497942 1.502058 0.497942
v 1.000000 -1.000000 0.000000
v 0.000000 -1.000000 1.000000
v 0.000000 -1.000000 -1.000000
v -1.000000 -1.000000 0.000000
v 1.000000 -1.000000 -0.500000
v 0.500000 -1.000000 1.000000
v -0.500000 -1.000000 -1.000000
v -1.000000 -1.000000 0.500000
v 1.000000 -1.000000 0.500000
v -0.500000 -1.000000 1.000000
v 0.500000 -1.000000 -1.000000
v -1.000000 -1.000000 -0.500000
v 0.000000 -1.000000 -0.500000
v 0.000000 -1.000000 0.500000
v 0.500000 -1.000000 0.000000
v -0.500000 -1.000000 0.000000
v -0.500000 -1.000000 0.500000
v 0.500000 -1.000000 0.500000
v 0.500000 -1.000000 -0.500000
v -0.500000 -1.000000 -0.500000
v 0.000000 -1.000000 0.250000
v 0.000000 -1.000000 -0.250000
v -0.500000 -1.000000 0.250000
v -0.250000 -1.000000 0.500000
v 0.500000 -1.000000 0.250000
v 0.250000 -1.000000 0.500000
v 0.500000 -1.000000 -0.250000
v 0.250000 -1.000000 -0.500000
v -0.500000 -1.000000 -0.250000
v -0.250000 -1.000000 -0.500000
v -0.250000 -1.000000 -0.250000
v 0.250000 -1.000000 -0.250000
v -0.250000 -1.000000 0.250000
v 0.250000 -1.000000 0.250000
v 0.000000 -3.000000 -0.250000
v 0.000000 -3.000000 -0.500000
v -0.250000 -3.000000 0.500000
v 0.000000 -3.000000 0.500000
v -0.250000 -3.000000 -0.500000
v 0.000000 -3.000000 0.250000
v 0.250000 -3.000000 0.500000
v 0.250000 -3.000000 -0.500000
v -0.250000 -3.000000 -0.250000
v 0.250000 -3.000000 -0.250000
v -0.250000 -3.000000 0.250000
v 0.250000 -3.000000 0.250000
v -0.200000 -0.200000 2.000000
v 0.200000 -0.200000 2.000000
v -0.200000 0.200000 2.000000
v 0.200000 0.200000 2.000000
v 0.200000 -0.200000 -2.000000
v 0.200000 0.200000 -2.000000
v -0.200000 0.200000 -2.000000
v -0.200000 -0.200000 -2.000000
vn 0.9373 0.3486 -0.0000
vn -0.0000 -1.0000 -0.0000
vn 0.9805 0.1967 -0.0000
vn -0.9805 0.1967 -0.0000
vn 1.0000 -0.0000 -0.0000
vn -0.0000 1.0000 -0.0000
vn -0.9373 0.3486 -0.0000
vn -0.0000 0.3486 0.9373
vn -0.0000 0.3486 -0.9373
vn -0.0000 -0.0000 1.0000
vn -0.0000 -0.0000 -1.0000
vn -0.3824 0.2549 -0.8881
vn 0.3824 0.2549 0.8881
vn -0.0000 0.3598 -0.9330
vn -0.0000 0.3598 0.9330
vn -1.0000 -0.0000 -0.0000
vn -0.3824 0.2549 0.8881
vn 0.3824 0.2549 -0.8881
vt 0.679953 0.779985
vt 0.218141 0.889679
vt 0.588215 0.186794
vt 0.758349 0.964372
vt 0.579339 0.243770
vt 0.754494 0.925226
vt 0.524121 0.542495
vt 0.160478 0.889679
vt 0.638085 0.781068
vt 0.106699 0.558186
vt 0.622289 0.577730
vt 0.999458 0.665956
vt 0.941795 0.665956
vt 0.408795 0.813163
vt 0.097823 0.501210
vt 0.292386 0.542495
vt 0.816012 0.964372
vt 0.292386 0.957321
vt 0.203981 0.558186
vt 0.622289 0.779985
vt 0.350049 0.957321
vt 0.524121 0.484832
vt 0.195104 0.501210
vt 0.696831 0.925226
vt 0.679952 0.577730
vt 0.579339 0.781068
vt 0.009418 0.555758
vt 0.695748 0.781068
vt 0.351132 0.813163
vt 0.000541 0.612734
vt 0.292386 0.484832
vt 0.637002 0.781068
vt 0.858390 0.326696
vt 0.814146 0.376557
vt 0.730024 0.000541
vt 0.345790 0.658904
vt 0.895146 0.326696
vt 0.766780 0.000541
vt 0.858390 0.289940
vt 0.777390 0.376557
vt 0.766780 0.154800
vt 0.382546 0.658904
vt 0.895146 0.289940
vt 0.730024 0.154800
vt 0.000542 0.368423
vt 0.408795 0.657821
vt 0.675537 0.375474
vt 0.894429 0.000542
vt 0.578256 0.368423
vt 0.408795 0.369506
vt 0.291303 0.369506
vt 0.894429 0.288857
vt 0.820184 0.307976
vt 0.072917 0.000542
vt 0.723986 0.529733
vt 0.675537 0.000541
vt 0.722903 0.578813
vt 0.289940 0.368423
vt 0.096740 0.744438
vt 0.407712 0.369506
vt 0.868633 0.665956
vt 0.820184 0.153717
vt 0.292386 0.812080
vt 0.362316 0.000542
vt 0.096740 0.369506
vt 0.722903 0.376557
vt 0.867550 0.529733
vt 0.194021 0.744438
vt 0.216481 0.000541
vt 0.676620 0.153717
vt 0.579339 0.376557
vt 0.288857 0.368423
vt 0.194021 0.369506
vt 0.407712 0.657821
vt 0.868633 0.954272
vt 0.435950 0.812080
vt 0.291303 0.744438
vt 0.505880 0.000541
vt 0.676620 0.307976
vt 0.579339 0.578813
vt 0.434098 0.368423
vt 0.072620 0.817600
vt 0.408795 0.513663
vt 0.894429 0.144699
vt 0.407712 0.513663
vt 0.868633 0.810114
vt 0.144699 0.368423
vt 0.219224 0.817600
vt 0.362019 0.368423
vt 0.072620 0.745521
vt 0.940712 0.665956
vt 0.408795 0.441584
vt 0.894429 0.216778
vt 0.407712 0.585742
vt 0.868633 0.882193
vt 0.072620 0.368423
vt 0.219224 0.889679
vt 0.966508 0.000542
vt 0.506177 0.368423
vt 0.072620 0.889679
vt 0.966508 0.288857
vt 0.408795 0.585742
vt 0.894429 0.072620
vt 0.407712 0.441584
vt 0.868633 0.738035
vt 0.216778 0.368423
vt 0.219224 0.745522
vt 0.940712 0.954272
vt 0.904673 0.376557
vt 0.940712 0.810114
vt 0.966508 0.144699
vt 0.857307 0.000542
vt 0.000542 0.817600
vt 0.109743 0.745521
vt 0.109743 0.889679
vt 0.291303 0.817600
vt 0.291303 0.889679
vt 0.966508 0.072620
vt 0.000541 0.890762
vt 0.037664 0.926802
vt 0.000542 0.889679
vt 0.966508 0.216778
vt 0.000542 0.745521
vt 0.894429 0.363819
vt 0.940712 0.738035
vt 0.291303 0.745522
vt 0.110826 0.890762
vt 0.940712 0.882193
vt 0.145782 0.817600
vt 0.473072 0.658904
vt 0.073703 0.817600
vt 0.831511 0.530816
vt 0.145782 0.889679
vt 0.291303 0.853640
vt 0.036581 0.890762
vt 0.000541 0.926802
vt 0.510195 0.658904
vt 0.966508 0.108660
vt 0.893346 0.000542
vt 0.000542 0.853640
vt 0.145782 0.745521
vt 0.073703 0.926802
vt 0.966508 0.180739
vt 0.821267 0.000542
vt 0.037664 0.890762
vt 0.794389 0.530816
vt 0.858390 0.363819
vt 0.000542 0.781561
vt 0.073703 0.745521
vt 0.977835 0.664873
vt 0.940712 0.376557
vt 0.894429 0.327780
vt 0.940712 0.774074
vt 0.073703 0.889679
vt 0.291303 0.781561
vt 0.074786 0.890762
vt 0.561244 0.369506
vt 0.110826 0.926802
vt 0.868633 0.376557
vt 0.940712 0.846153
vt 0.525204 0.369506
vt 0.074786 0.926802
vt 0.073703 0.853640
vt 0.867550 0.530816
vt 0.073703 0.781561
vt 0.795471 0.530816
vt 0.858390 0.327780
vt 0.941795 0.664873
vt 0.145782 0.853640
vt 0.036581 0.926802
vt 0.437033 0.658904
vt 0.546234 0.658904
vt 0.758349 0.530816
vt 0.145782 0.781561
vt 0.073703 0.890762
vt 0.509112 0.658904
vt 0.831511 0.819132
vt 0.817095 0.856254
vt 0.904673 0.664873
vt 0.853135 0.856254
vt 0.893346 0.288857
vt 0.821267 0.289940
vt 0.510195 0.947220
vt 0.857307 0.288857
vt 0.821267 0.325980
vt 0.561243 0.657821
vt 0.868633 0.664873
vt 0.853135 0.820214
vt 0.857307 0.325980
vt 0.473072 0.947220
vt 0.821267 0.288857
vt 0.794388 0.819132
vt 0.821267 0.362019
vt 0.940712 0.664873
vt 0.977835 0.376557
vt 0.853135 0.892293
vt 0.525204 0.657821
vt 0.867550 0.819131
vt 0.817095 0.820214
vt 0.795471 0.819132
vt 0.941795 0.376557
vt 0.817095 0.892293
vt 0.857307 0.289940
vt 0.437033 0.947220
vt 0.546234 0.947220
vt 0.758349 0.819132
vt 0.857307 0.362019
vt 0.509112 0.947220
vt 0.793029 0.309058
vt 0.754494 0.781068
vt 0.160478 0.745521
vt 0.793029 0.366722
vt 0.350049 0.813163
vt 0.696831 0.781068
vt 0.735366 0.309058
vt 0.758349 0.820214
vt 0.218141 0.745521
vt 0.292386 0.813163
vt 0.735366 0.366722
vt 0.816012 0.820214
vt 0.351132 0.957321
vt 0.734283 0.366722
vt 0.637002 0.925226
vt 0.734283 0.309058
vt 0.579339 0.925226
vt 0.695748 0.925226
vt 0.676620 0.309058
vt 0.638085 0.925226
vt 0.999458 0.810114
vt 0.676620 0.366722
vt 0.408795 0.957321
vt 0.941795 0.810114
s 0
usemtl Material
f 17/63/1 12/42/1 20/76/1
f 4/14/2 71/221/2 8/29/2
f 17/64/3 29/99/3 25/89/3
f 15/54/4 32/106/4 28/96/4
f 5/18/5 68/213/5 6/21/5
f 12/43/6 9/33/6 11/39/6
f 15/55/7 9/34/7 18/67/7
f 20/79/8 11/41/8 15/53/8
f 18/70/9 10/38/9 17/62/9
f 2/7/10 22/83/10 14/50/10
f 1/3/10 13/47/10 2/5/10
f 7/27/11 16/59/11 8/30/11
f 3/10/12 19/73/12 18/68/12
f 5/19/13 14/51/13 20/77/13
f 3/11/14 17/66/14 7/25/14
f 8/31/11 23/85/11 19/74/11
f 5/20/15 15/57/15 1/1/15
f 47/148/2 39/123/2 21/82/2
f 36/115/2 42/131/2 35/114/2
f 24/88/2 40/126/2 36/116/2
f 34/111/2 38/122/2 26/93/2
f 50/157/16 63/197/16 51/161/16
f 49/156/2 50/158/2 51/162/2
f 33/109/11 62/194/11 56/179/11
f 42/132/10 63/198/10 55/177/10
f 52/167/2 39/124/2 47/147/2
f 44/139/10 58/184/10 46/144/10
f 37/119/2 53/170/2 44/136/2
f 46/145/2 45/142/2 38/120/2
f 46/146/5 66/206/5 54/173/5
f 57/182/2 60/189/2 61/193/2
f 23/86/2 39/125/2 50/160/2
f 41/130/11 66/208/11 60/190/11
f 52/168/5 62/195/5 48/150/5
f 53/172/16 57/183/16 44/137/16
f 55/178/2 59/188/2 56/180/2
f 70/219/10 67/209/10 68/212/10
f 6/24/2 67/210/2 2/6/2
f 1/4/6 70/220/6 5/17/6
f 2/8/16 69/217/16 1/2/16
f 73/227/11 71/222/11 74/230/11
f 8/32/5 72/225/5 7/26/5
f 7/28/6 73/228/6 3/9/6
f 3/12/16 74/232/16 4/13/16
f 17/63/1 10/36/1 12/42/1
f 4/14/2 74/231/2 71/221/2
f 25/89/3 16/58/3 17/64/3
f 17/64/3 20/78/3 14/49/3
f 29/99/6 21/81/6 25/89/6
f 17/64/3 14/49/3 29/99/3
f 28/96/4 13/45/4 15/54/4
f 15/54/4 18/69/4 19/72/4
f 32/106/6 24/87/6 28/96/6
f 15/54/4 19/72/4 32/106/4
f 5/18/5 70/218/5 68/213/5
f 12/43/6 10/37/6 9/33/6
f 15/55/7 11/40/7 9/34/7
f 20/79/8 12/44/8 11/41/8
f 18/70/9 9/35/9 10/38/9
f 14/50/10 6/22/10 2/7/10
f 2/7/10 13/46/10 30/102/10
f 22/83/6 26/92/6 14/50/6
f 2/7/10 30/102/10 22/83/10
f 1/3/17 15/56/17 13/47/17
f 7/27/18 17/65/18 16/59/18
f 3/10/11 4/15/11 19/73/11
f 5/19/10 6/23/10 14/51/10
f 3/11/14 18/71/14 17/66/14
f 19/74/11 4/16/11 8/31/11
f 8/31/11 16/60/11 31/104/11
f 23/85/6 27/94/6 19/74/6
f 8/31/11 31/104/11 23/85/11
f 5/20/15 20/80/15 15/57/15
f 21/82/2 29/100/2 38/121/2
f 45/140/6 35/113/6 47/148/6
f 21/82/2 38/121/2 45/140/2
f 39/123/2 25/90/2 21/82/2
f 21/82/2 45/140/2 47/148/2
f 45/141/6 54/174/6 41/129/6
f 53/169/2 43/133/2 36/115/2
f 35/114/2 45/141/2 41/129/2
f 41/129/2 53/169/2 36/115/2
f 36/115/2 49/154/2 51/163/2
f 42/131/6 52/165/6 47/149/6
f 36/115/2 51/163/2 42/131/2
f 35/114/2 41/129/2 36/115/2
f 42/131/2 47/149/2 35/114/2
f 43/134/2 37/117/2 28/97/2
f 24/88/2 32/107/2 40/126/2
f 43/134/2 28/97/2 24/88/2
f 40/126/6 49/155/6 36/116/6
f 36/116/2 43/134/2 24/88/2
f 26/93/6 22/84/6 30/103/6
f 30/103/2 13/48/2 28/98/2
f 37/118/6 44/138/6 34/111/6
f 30/103/2 28/98/2 37/118/2
f 29/101/2 14/52/2 26/93/2
f 26/93/2 30/103/2 37/118/2
f 34/111/6 46/143/6 38/122/6
f 26/93/2 37/118/2 34/111/2
f 38/122/2 29/101/2 26/93/2
f 50/157/16 59/186/16 63/197/16
f 49/156/2 40/127/2 50/158/2
f 59/187/11 50/159/11 33/109/11
f 33/109/11 48/151/11 62/194/11
f 56/179/11 59/187/11 33/109/11
f 64/200/10 52/166/10 42/132/10
f 42/132/10 51/164/10 63/198/10
f 55/177/10 64/200/10 42/132/10
f 52/167/2 48/152/2 39/124/2
f 46/144/6 34/112/6 44/139/6
f 44/139/10 57/181/10 58/184/10
f 58/184/10 61/191/10 46/144/10
f 37/119/2 43/135/2 53/170/2
f 46/145/2 54/175/2 45/142/2
f 46/146/5 61/192/5 66/206/5
f 61/193/6 58/185/6 57/182/6
f 57/182/2 65/203/2 60/189/2
f 60/189/2 66/207/2 61/193/2
f 50/160/6 40/128/6 32/108/6
f 32/108/2 19/75/2 27/95/2
f 23/86/6 31/105/6 16/61/6
f 32/108/2 27/95/2 23/86/2
f 48/153/6 33/110/6 50/160/6
f 50/160/2 32/108/2 23/86/2
f 23/86/2 16/61/2 25/91/2
f 39/125/6 48/153/6 50/160/6
f 23/86/2 25/91/2 39/125/2
f 65/204/11 53/171/11 41/130/11
f 41/130/11 54/176/11 66/208/11
f 60/190/11 65/204/11 41/130/11
f 52/168/5 64/201/5 62/195/5
f 53/172/16 65/205/16 57/183/16
f 62/196/2 64/202/2 55/178/2
f 55/178/2 63/199/2 59/188/2
f 56/180/2 62/196/2 55/178/2
f 70/219/10 69/215/10 67/209/10
f 6/24/2 68/214/2 67/210/2
f 1/4/6 69/216/6 70/220/6
f 2/8/16 67/211/16 69/217/16
f 73/227/11 72/224/11 71/222/11
f 8/32/5 71/223/5 72/225/5
f 7/28/6 72/226/6 73/228/6
f 3/12/16 73/229/16 74/232/16
